<mxfile host="app.diagrams.net" modified="2024-07-20T19:20:31.030Z" agent="Mozilla/5.0 (Windows NT 10.0; Win64; x64) AppleWebKit/537.36 (KHTML, like Gecko) Chrome/126.0.0.0 Safari/537.36 Edg/126.0.0.0" version="24.6.5" etag="ZlyJwhKSMx_xJA4DgHK6" type="github">
  <diagram name="Page-1" id="nD1ZUovnuG7QckBjT80J">
    <mxGraphModel>
      <root>
        <mxCell id="0" />
        <mxCell id="1" parent="0" />
      </root>
    </mxGraphModel>
  </diagram>
</mxfile>
